<svg width="1000" height="250" fill="none" xmlns="http://www.w3.org/2000/svg"><g clip-path="url(#clip0)"><path d="M0 0h250v250H0z"/><path d="M38.027 166.451l71-122.976L180.146 84.1c34.16 19.512 45.942 63.08 26.272 97.15-19.542 33.847-62.765 45.536-96.703 26.15l-71.688-40.949z" fill="url(#paint0_linear)"/><path d="M69.907 25.074a3.678 3.678 0 0 1 5.023-1.346l109.551 63.249a3.678 3.678 0 0 1-3.678 6.37l-109.55-63.25a3.678 3.678 0 0 1-1.346-5.023zM16.519 149.385a3.678 3.678 0 0 1 5.024-1.347l82.203 47.461a3.677 3.677 0 1 1-3.677 6.37l-82.204-47.461a3.677 3.677 0 0 1-1.346-5.023zM58.171 136.922a3.678 3.678 0 0 1 5.024-1.346l49.45 28.55a3.678 3.678 0 0 1-3.677 6.37l-49.45-28.55a3.678 3.678 0 0 1-1.347-5.024zM88.216 106.096a3.678 3.678 0 0 1 5.024-1.347L142.69 133.3a3.678 3.678 0 0 1-3.678 6.37l-49.45-28.551a3.677 3.677 0 0 1-1.347-5.023zM80.881 59.403a3.678 3.678 0 0 1 5.024-1.346l49.451 28.55a3.678 3.678 0 0 1-3.678 6.37l-49.45-28.55a3.678 3.678 0 0 1-1.347-5.024zM52.093 64.011a3.678 3.678 0 0 1 5.024-1.346l26.071 15.052a3.678 3.678 0 0 1-3.677 6.37L53.439 69.035a3.678 3.678 0 0 1-1.346-5.024zM70.71 118.033a3.678 3.678 0 0 1 5.023-1.346l8.751 5.053a3.677 3.677 0 1 1-3.677 6.37l-8.752-5.053a3.678 3.678 0 0 1-1.346-5.024zM40.336 143.772a3.677 3.677 0 0 1 5.024-1.346l17.41 10.052a3.678 3.678 0 0 1-3.677 6.37l-17.41-10.053a3.677 3.677 0 0 1-1.347-5.023zM43.765 102.477a3.677 3.677 0 0 1 5.024-1.346L66.2 111.183a3.678 3.678 0 0 1-3.678 6.37l-17.41-10.052a3.678 3.678 0 0 1-1.347-5.024zM54.77 93.317a3.678 3.678 0 0 1 5.023-1.346l17.411 10.052a3.678 3.678 0 0 1-3.678 6.37l-17.41-10.052a3.678 3.678 0 0 1-1.347-5.024z" fill="#FFD686"/><path d="M129.987 92.371a4 4 0 0 1 3.864-1.035l5.68 1.522c.177.047.348.106.514.176a52.297 52.297 0 0 1 2.834-.31l3.787-3.787a4.001 4.001 0 0 1 3.864-1.035l5.681 1.522a4 4 0 0 1 2.828 2.828l.471 1.756a52.174 52.174 0 0 1 5.902 1.789 3.999 3.999 0 0 1 1.747.072l5.681 1.523a4 4 0 0 1 2.828 2.828l.229.853a52.67 52.67 0 0 1 11.442 10.13l1.751.469a4.002 4.002 0 0 1 2.828 2.829l1.512 5.644c.307.569.604 1.143.891 1.724.124.126.24.261.347.405l3.524 4.709a3.999 3.999 0 0 1 .475 3.971l-.538 1.257a52.07 52.07 0 0 1 1.074 5.488l.612.375a4 4 0 0 1 1.909 3.515l-.154 5.88a3.999 3.999 0 0 1-.541 1.906l1.702 2.273a4 4 0 0 1 .474 3.972l-2.315 5.406a4.008 4.008 0 0 1-.543.911 3.99 3.99 0 0 1 .472 1.992l-.154 5.879a4 4 0 0 1-2.09 3.411l-5.168 2.806a4.004 4.004 0 0 1-3.475.166c.257.878.21 1.832-.162 2.699l-2.315 5.406a4 4 0 0 1-3.203 2.397l-5.839.698-.036.004-.028.003-.116.01a52.834 52.834 0 0 1-4.538 2.98l-.057 2.191a4 4 0 0 1-2.09 3.411l-5.168 2.806a4.002 4.002 0 0 1-3.999-.104l-3.849-2.359a52.166 52.166 0 0 1-4.63.804 4.005 4.005 0 0 1-2.681 1.513l-5.839.697a4 4 0 0 1-3.677-1.575l-.123-.164-2.128 1.156a4 4 0 0 1-3.999-.105l-5.014-3.072a3.965 3.965 0 0 1-.857-.706l-2.514 2.514a4.002 4.002 0 0 1-3.864 1.036l-5.681-1.523a3.999 3.999 0 0 1-2.828-2.828l-1.522-5.681a3.978 3.978 0 0 1-.108-1.512l-.321-.086a4.002 4.002 0 0 1-2.536-2.062 4 4 0 0 1-2.995.377l-5.681-1.523a3.999 3.999 0 0 1-2.828-2.828l-1.522-5.681a3.999 3.999 0 0 1 1.035-3.863l.476-.477a3.995 3.995 0 0 1-2.087-1.468l-3.48-4.741a4 4 0 0 1-.437-3.976l1.106-2.517a4.159 4.159 0 0 1-.295-.357l-3.48-4.741a4 4 0 0 1-.437-3.976l2.366-5.385a4.002 4.002 0 0 1 2.895-2.316 53.444 53.444 0 0 1 .182-1.992l-1.695-1.038a4 4 0 0 1-1.909-3.515l.154-5.88a4 4 0 0 1 2.09-3.41l3.816-2.073a3.996 3.996 0 0 1 .268-2.242l2.315-5.406a4 4 0 0 1 3.203-2.397l.761-.091.085-3.269a4.001 4.001 0 0 1 2.09-3.411l5.169-2.807a4.001 4.001 0 0 1 3.59-.114 52.664 52.664 0 0 1 10.208-6.229c.176-.312.395-.603.655-.863l4.159-4.159z" fill="#776A9C"/><g style="mix-blend-mode:overlay" fill-rule="evenodd" clip-rule="evenodd" fill="#000" fill-opacity=".07"><path d="M115.68 181.247c-.17-.676.24-1.367.926-1.491a18.722 18.722 0 0 1 15.277 4.005c.537.445.555 1.247.075 1.753-.479.505-1.276.522-1.817.083a16.199 16.199 0 0 0-12.918-3.386c-.687.117-1.373-.288-1.543-.964zM144.027 169.777c-.541-.439-.626-1.237-.152-1.748a18.724 18.724 0 0 1 14.631-5.946c.697.035 1.192.666 1.111 1.358-.081.693-.709 1.183-1.405 1.156a16.194 16.194 0 0 0-12.372 5.028c-.48.505-1.272.592-1.813.152zM186.278 132.351c-.094.691-.731 1.179-1.414 1.039a18.72 18.72 0 0 1-12.689-9.404c-.333-.612-.051-1.364.583-1.655.633-.29 1.378-.009 1.717.6a16.198 16.198 0 0 0 10.729 7.951c.682.147 1.167.778 1.074 1.469zM143.071 145.991c.169-.676.857-1.091 1.52-.876a18.727 18.727 0 0 1 11.567 10.754c.262.646-.101 1.362-.763 1.58-.662.219-1.371-.143-1.641-.786a16.195 16.195 0 0 0-9.78-9.093c-.661-.222-1.073-.903-.903-1.579zM176.292 170.919c.681.152 1.114.828.917 1.497a18.726 18.726 0 0 1-10.437 11.853c-.638.28-1.364-.064-1.6-.72-.237-.655.106-1.374.742-1.661a16.199 16.199 0 0 0 8.824-10.023c.204-.666.874-1.097 1.554-.946zM190.978 165.617c-.62.32-1.385.078-1.663-.562a18.722 18.722 0 0 1 .416-15.787c.311-.624 1.088-.825 1.69-.473.601.352.799 1.123.495 1.75a16.2 16.2 0 0 0-.352 13.35c.271.642.033 1.402-.586 1.722zM134.023 138.997c-.645-.263-.96-1.002-.655-1.628a18.719 18.719 0 0 1 12.263-9.953c.676-.17 1.334.289 1.458.975.124.686-.333 1.338-1.008 1.515a16.198 16.198 0 0 0-10.368 8.416c-.312.623-1.044.937-1.69.675zM116.652 115.109c.01-.697.583-1.259 1.278-1.202a18.719 18.719 0 0 1 13.735 7.795c.405.567.216 1.348-.377 1.713-.594.366-1.367.177-1.778-.386a16.2 16.2 0 0 0-11.614-6.592c-.694-.063-1.253-.631-1.244-1.328zM156.083 174.176c.657.232 1.006.955.73 1.596a18.723 18.723 0 0 1-11.784 10.514c-.668.201-1.347-.228-1.503-.907-.156-.679.271-1.352.936-1.56a16.197 16.197 0 0 0 9.965-8.89c.282-.638.999-.985 1.656-.753zM167.981 152.175c.232-.658.955-1.006 1.595-.73a18.722 18.722 0 0 1 10.515 11.784c.201.667-.228 1.346-.907 1.502-.679.156-1.352-.27-1.56-.935a16.199 16.199 0 0 0-8.891-9.965c-.637-.283-.984-.999-.752-1.656zM118.738 140.293c.35-.603 1.125-.811 1.703-.422a18.727 18.727 0 0 1 8.154 13.526c.074.693-.473 1.281-1.169 1.308-.697.028-1.279-.516-1.36-1.208a16.201 16.201 0 0 0-6.895-11.437c-.574-.395-.783-1.164-.433-1.767zM172.461 141.995c.317.621.073 1.385-.568 1.66a18.722 18.722 0 0 1-15.786-.479c-.623-.313-.82-1.091-.466-1.692.354-.6 1.126-.794 1.752-.488a16.2 16.2 0 0 0 13.349.405c.643-.268 1.402-.027 1.719.594zM149.487 119.813c.062-.695.676-1.211 1.365-1.103a18.721 18.721 0 0 1 13.107 8.811c.36.596.113 1.36-.506 1.68-.62.319-1.377.073-1.743-.52a16.198 16.198 0 0 0-11.083-7.45c-.688-.116-1.202-.724-1.14-1.418zM142.944 105.441c.449.533.383 1.333-.179 1.745a18.725 18.725 0 0 1-15.487 3.097c-.677-.165-1.045-.878-.836-1.543.21-.665.918-1.028 1.597-.871a16.2 16.2 0 0 0 13.096-2.618c.566-.407 1.36-.343 1.809.19zM171.218 104.866c.202.667-.175 1.376-.854 1.533a18.727 18.727 0 0 1-15.45-3.278c-.557-.419-.613-1.219-.158-1.747.455-.528 1.25-.582 1.811-.169a16.2 16.2 0 0 0 13.064 2.771c.681-.149 1.385.223 1.587.89zM108.522 125.953c.691-.086 1.326.405 1.366 1.101a18.72 18.72 0 0 1-5.841 14.673c-.507.478-1.306.399-1.749-.139-.443-.538-.362-1.33.139-1.814a16.193 16.193 0 0 0 4.939-12.407c-.032-.697.454-1.328 1.146-1.414zM125.404 169.764c-.556-.421-.668-1.216-.211-1.742a18.726 18.726 0 0 1 14.423-6.434c.697.011 1.214.626 1.156 1.321-.058.694-.669 1.205-1.366 1.201a16.2 16.2 0 0 0-12.196 5.441c-.463.521-1.251.634-1.806.213zM106.869 154.235c.455-.528 1.256-.589 1.752-.099a18.721 18.721 0 0 1 5.502 14.803c-.055.695-.701 1.171-1.391 1.069-.689-.102-1.16-.744-1.112-1.439a16.2 16.2 0 0 0-4.653-12.518c-.491-.495-.554-1.288-.098-1.816z"/></g></g><g clip-path="url(#clip1)"><path d="M250 0h250v250H250z"/><path d="M287.823 167.209l71-122.975 71.12 40.624c34.16 19.513 45.941 63.081 26.272 97.15-19.542 33.848-62.766 45.536-96.703 26.151l-71.689-40.95z" fill="url(#paint1_linear)"/><path d="M317.105 24.332a3.678 3.678 0 0 1 5.024-1.346l109.55 63.25a3.677 3.677 0 1 1-3.677 6.369L318.451 29.356a3.678 3.678 0 0 1-1.346-5.024zM263.718 148.643a3.676 3.676 0 0 1 5.023-1.346l82.204 47.46a3.678 3.678 0 1 1-3.678 6.37l-82.203-47.46a3.678 3.678 0 0 1-1.346-5.024zM305.37 136.181a3.676 3.676 0 0 1 5.023-1.346l49.451 28.55a3.678 3.678 0 1 1-3.678 6.37l-49.45-28.55a3.678 3.678 0 0 1-1.346-5.024zM335.415 105.354a3.678 3.678 0 0 1 5.024-1.346l49.45 28.55a3.678 3.678 0 0 1-3.677 6.37l-49.451-28.55a3.678 3.678 0 0 1-1.346-5.024zM328.08 58.662a3.678 3.678 0 0 1 5.024-1.346l49.45 28.55a3.677 3.677 0 1 1-3.677 6.37l-49.451-28.55a3.677 3.677 0 0 1-1.346-5.024zM299.292 63.27a3.677 3.677 0 0 1 5.023-1.347l26.072 15.053a3.677 3.677 0 1 1-3.678 6.37l-26.071-15.053a3.677 3.677 0 0 1-1.346-5.023zM317.908 117.292a3.678 3.678 0 0 1 5.024-1.346l8.751 5.052a3.678 3.678 0 0 1-3.678 6.37l-8.751-5.052a3.678 3.678 0 0 1-1.346-5.024zM287.535 143.03a3.677 3.677 0 0 1 5.023-1.346l17.412 10.053a3.677 3.677 0 1 1-3.678 6.369l-17.411-10.052a3.677 3.677 0 0 1-1.346-5.024zM290.964 101.736a3.676 3.676 0 0 1 5.023-1.346l17.412 10.052a3.678 3.678 0 0 1-3.678 6.37l-17.411-10.053a3.676 3.676 0 0 1-1.346-5.023zM301.968 92.576a3.678 3.678 0 0 1 5.024-1.347l17.411 10.053a3.678 3.678 0 0 1-3.678 6.37l-17.411-10.053a3.677 3.677 0 0 1-1.346-5.023z" fill="#FFD686"/><path d="M377.921 93.712a4 4 0 0 1 3.825-1.17l5.731 1.324c.177.04.351.094.519.157.933-.16 1.874-.297 2.822-.408l3.652-3.917a4.002 4.002 0 0 1 3.826-1.17l5.73 1.324a4 4 0 0 1 2.926 2.728l.531 1.738c2.034.413 4.024.943 5.961 1.582a3.996 3.996 0 0 1 1.748.011l5.731 1.323a4 4 0 0 1 2.925 2.728l.258.844a52.69 52.69 0 0 1 11.789 9.725l1.766.408a4 4 0 0 1 2.926 2.728l1.708 5.588c.327.558.644 1.122.95 1.692.128.122.249.253.362.393l3.686 4.582a4.001 4.001 0 0 1 .612 3.953l-.493 1.274a52.307 52.307 0 0 1 1.265 5.448l.625.353a4.004 4.004 0 0 1 2.03 3.447l.051 5.881a3.993 3.993 0 0 1-.474 1.924l1.78 2.213a3.997 3.997 0 0 1 .613 3.952l-2.125 5.484c-.13.335-.303.647-.511.929.343.59.535 1.268.541 1.974l.052 5.881a4.002 4.002 0 0 1-1.97 3.482l-5.067 2.985a4 4 0 0 1-3.467.287 4 4 0 0 1-.068 2.703l-2.125 5.484a4.002 4.002 0 0 1-3.117 2.507l-5.812.901-.036.005-.027.004-.116.015a52.754 52.754 0 0 1-4.431 3.136l.02 2.192a4 4 0 0 1-1.97 3.481l-5.067 2.985a3.998 3.998 0 0 1-4 .035l-3.929-2.223c-1.51.389-3.044.712-4.599.965a4.004 4.004 0 0 1-2.627 1.606l-5.811.901a4 4 0 0 1-3.73-1.446l-.128-.159-2.087 1.229a4 4 0 0 1-4 .035l-5.118-2.896a3.993 3.993 0 0 1-.881-.675l-2.425 2.6a4.002 4.002 0 0 1-3.825 1.17l-5.731-1.323a4.003 4.003 0 0 1-2.925-2.728l-1.72-5.625a3.994 3.994 0 0 1-.16-1.507l-.324-.075a4 4 0 0 1-2.606-1.972 4.002 4.002 0 0 1-2.98.481l-5.731-1.323a4 4 0 0 1-2.925-2.728l-1.72-5.624a4 4 0 0 1 .9-3.898l.459-.492a4.002 4.002 0 0 1-2.137-1.395l-3.643-4.617a4 4 0 0 1-.576-3.958l1.018-2.554a3.921 3.921 0 0 1-.307-.347l-3.644-4.616a4.001 4.001 0 0 1-.575-3.959l2.177-5.463a3.997 3.997 0 0 1 2.812-2.416 52.879 52.879 0 0 1 .112-1.997l-1.73-.979a3.998 3.998 0 0 1-2.03-3.446l-.052-5.881a4.002 4.002 0 0 1 1.97-3.482l3.742-2.204a4.004 4.004 0 0 1 .188-2.251l2.126-5.483a4 4 0 0 1 3.117-2.507l.757-.118-.028-3.27a4 4 0 0 1 1.969-3.482l5.068-2.985a4 4 0 0 1 3.584-.239 52.635 52.635 0 0 1 9.984-6.582c.165-.318.374-.616.625-.886l4.011-4.3z" fill="#776A9C"/><g style="mix-blend-mode:overlay" fill-rule="evenodd" clip-rule="evenodd" fill="#000" fill-opacity=".07"><path d="M366.725 183.033c-.194-.67.192-1.374.873-1.522a18.722 18.722 0 0 1 15.407 3.469c.552.426.599 1.227.137 1.749-.462.522-1.257.567-1.813.147a16.203 16.203 0 0 0-13.029-2.934c-.682.141-1.382-.239-1.575-.909zM394.654 170.581c-.556-.42-.669-1.215-.213-1.741a18.726 18.726 0 0 1 14.415-6.454c.697.011 1.214.624 1.157 1.319-.057.695-.667 1.207-1.364 1.204a16.2 16.2 0 0 0-12.189 5.456c-.462.522-1.25.636-1.806.216zM435.573 131.703c-.07.694-.69 1.204-1.377 1.088a18.722 18.722 0 0 1-13.009-8.955c-.354-.601-.099-1.362.524-1.674.623-.313 1.378-.058 1.738.539a16.197 16.197 0 0 0 11 7.572c.686.123 1.193.737 1.124 1.43zM392.868 146.843c.146-.682.819-1.12 1.489-.928a18.721 18.721 0 0 1 11.935 10.343c.285.636-.054 1.364-.707 1.606-.654.241-1.376-.096-1.667-.729a16.2 16.2 0 0 0-10.092-8.746c-.668-.199-1.104-.865-.958-1.546zM426.939 170.596c.686.128 1.142.789.968 1.464a18.72 18.72 0 0 1-10.016 12.21c-.628.302-1.365-.016-1.624-.663-.26-.647.058-1.377.683-1.686a16.198 16.198 0 0 0 8.469-10.325c.181-.673.835-1.127 1.52-1zM441.431 164.785c-.608.341-1.382.126-1.681-.503a18.723 18.723 0 0 1-.136-15.793c.289-.634 1.059-.862 1.672-.532.614.331.838 1.095.556 1.733a16.198 16.198 0 0 0 .115 13.353c.293.633.081 1.401-.526 1.742zM383.582 140.168c-.654-.239-.994-.967-.711-1.604a18.724 18.724 0 0 1 11.907-10.375c.67-.193 1.344.243 1.492.924.148.682-.287 1.349-.954 1.549a16.202 16.202 0 0 0-10.069 8.773c-.29.634-1.01.973-1.665.733zM365.388 116.902c-.015-.697.538-1.279 1.235-1.247a18.726 18.726 0 0 1 13.999 7.311c.424.554.263 1.34-.318 1.726-.58.386-1.36.224-1.79-.324a16.195 16.195 0 0 0-11.837-6.182c-.696-.04-1.274-.587-1.289-1.284zM406.856 174.557c.665.209 1.039.919.786 1.569a18.728 18.728 0 0 1-11.411 10.919c-.66.224-1.353-.181-1.533-.854-.18-.674.223-1.36.881-1.592a16.193 16.193 0 0 0 9.648-9.233c.26-.646.964-1.018 1.629-.809zM417.979 152.153c.209-.665.919-1.038 1.569-.785a18.724 18.724 0 0 1 10.919 11.41c.224.66-.18 1.354-.854 1.533-.673.18-1.36-.223-1.591-.88a16.203 16.203 0 0 0-9.233-9.649c-.647-.26-1.019-.964-.81-1.629zM368.351 141.998c.329-.615 1.096-.851 1.687-.482a18.72 18.72 0 0 1 8.621 13.233c.099.69-.427 1.297-1.122 1.349-.695.052-1.296-.471-1.402-1.16a16.193 16.193 0 0 0-7.289-11.189c-.588-.376-.823-1.136-.495-1.751zM422.101 141.824c.339.609.121 1.381-.51 1.678a18.719 18.719 0 0 1-15.793.072c-.633-.291-.858-1.062-.525-1.674.333-.612 1.098-.833 1.735-.549a16.196 16.196 0 0 0 13.354-.061c.634-.29 1.4-.076 1.739.534zM398.367 120.457c.038-.696.633-1.235 1.325-1.15a18.72 18.72 0 0 1 13.407 8.348c.381.584.161 1.356-.447 1.697-.608.34-1.373.12-1.761-.459a16.194 16.194 0 0 0-11.336-7.059c-.691-.092-1.226-.681-1.188-1.377zM391.326 106.322c.467.517.43 1.319-.118 1.75a18.718 18.718 0 0 1-15.369 3.635c-.683-.14-1.076-.84-.889-1.512.186-.672.881-1.06 1.565-.926a16.2 16.2 0 0 0 12.996-3.074c.552-.426 1.348-.39 1.815.127zM419.563 104.76c.225.66-.127 1.382-.8 1.562a18.722 18.722 0 0 1-15.555-2.736c-.571-.399-.656-1.198-.219-1.741.437-.543 1.229-.625 1.804-.232a16.202 16.202 0 0 0 13.153 2.314c.675-.174 1.392.174 1.617.833zM357.641 128.023c.688-.111 1.34.358 1.404 1.052a18.723 18.723 0 0 1-5.326 14.868c-.49.496-1.291.444-1.753-.078-.461-.522-.408-1.317.077-1.817a16.203 16.203 0 0 0 4.503-12.573c-.057-.694.406-1.342 1.095-1.452zM376.041 171.218c-.57-.401-.709-1.192-.271-1.733a18.724 18.724 0 0 1 14.19-6.934c.697-.013 1.235.583 1.201 1.279-.034.697-.626 1.228-1.323 1.249a16.199 16.199 0 0 0-11.999 5.863c-.444.537-1.228.677-1.798.276zM356.976 156.345c.437-.543 1.235-.632 1.747-.16a18.721 18.721 0 0 1 6.016 14.602c-.031.697-.66 1.195-1.353 1.117-.693-.078-1.186-.703-1.162-1.399a16.196 16.196 0 0 0-5.087-12.348c-.507-.478-.598-1.269-.161-1.812z"/></g></g><g clip-path="url(#clip2)"><path d="M500 0h250v250H500z"/><path d="M537.811 167.257l71-122.975 71.119 40.624c34.16 19.513 45.942 63.081 26.272 97.15-19.542 33.848-62.765 45.536-96.703 26.151l-71.688-40.95z" fill="url(#paint2_linear)"/><path d="M576.864 30.01a3.5 3.5 0 0 1 4.781-1.282l103.057 59.5a3.5 3.5 0 0 1-3.5 6.062l-103.057-59.5a3.5 3.5 0 0 1-1.281-4.78zM523.231 154.191a3.678 3.678 0 0 1 5.024-1.346l82.203 47.46a3.678 3.678 0 0 1-3.677 6.37l-82.204-47.46a3.678 3.678 0 0 1-1.346-5.024zM550.161 133.229a3.676 3.676 0 0 1 5.023-1.346l49.451 28.55a3.678 3.678 0 1 1-3.678 6.37l-49.45-28.55a3.678 3.678 0 0 1-1.346-5.024zM581.938 103.402a3.677 3.677 0 0 1 5.024-1.346l49.45 28.55a3.678 3.678 0 0 1-3.677 6.37l-49.451-28.55a3.678 3.678 0 0 1-1.346-5.024zM583.263 61.71a3.678 3.678 0 0 1 5.024-1.346l49.451 28.55a3.678 3.678 0 0 1-3.678 6.37l-49.451-28.55a3.678 3.678 0 0 1-1.346-5.024zM545.815 61.318a3.677 3.677 0 0 1 5.023-1.347l26.072 15.053a3.677 3.677 0 1 1-3.678 6.37L547.161 66.34a3.677 3.677 0 0 1-1.346-5.023zM572.225 119.84a3.678 3.678 0 0 1 5.024-1.346l8.751 5.052a3.678 3.678 0 1 1-3.678 6.37l-8.751-5.052a3.678 3.678 0 0 1-1.346-5.024zM532.326 140.078a3.677 3.677 0 0 1 5.023-1.346l17.412 10.053a3.677 3.677 0 1 1-3.678 6.369l-17.411-10.052a3.678 3.678 0 0 1-1.346-5.024zM537.487 99.784a3.677 3.677 0 0 1 5.023-1.346l17.412 10.052a3.678 3.678 0 0 1-3.678 6.37l-17.411-10.053a3.676 3.676 0 0 1-1.346-5.023zM555.419 94.624a3.678 3.678 0 0 1 5.024-1.347l17.411 10.053a3.679 3.679 0 0 1-3.678 6.37l-17.411-10.053a3.677 3.677 0 0 1-1.346-5.023z" fill="#FFD686"/><path d="M625.155 94.755a4 4 0 0 1 3.759-1.368l5.792 1.02c.179.032.355.076.526.131a52.37 52.37 0 0 1 2.797-.555l3.443-4.103a3.999 3.999 0 0 1 3.758-1.368l5.792 1.021a3.998 3.998 0 0 1 3.064 2.571l.622 1.708c2.053.306 4.068.731 6.036 1.268a3.997 3.997 0 0 1 1.746-.08l5.792 1.021a3.998 3.998 0 0 1 3.064 2.571l.302.83a52.637 52.637 0 0 1 12.282 9.095l1.785.314a4.002 4.002 0 0 1 3.064 2.571l1.999 5.491c.355.54.701 1.087 1.037 1.64.134.115.262.24.381.373l3.921 4.384a4 4 0 0 1 .819 3.915l-.426 1.299a52.008 52.008 0 0 1 1.548 5.374l.643.32a4 4 0 0 1 2.208 3.335l.359 5.87a4.007 4.007 0 0 1-.373 1.947l1.893 2.116a4 4 0 0 1 .819 3.916l-1.835 5.587a4.01 4.01 0 0 1-.462.954c.374.572.601 1.239.644 1.944l.36 5.87a4.003 4.003 0 0 1-1.785 3.58l-4.904 3.246a4.002 4.002 0 0 1-3.448.468c.333.852.369 1.807.075 2.703l-1.836 5.587a4 4 0 0 1-2.982 2.667l-5.756 1.204-.036.007-.027.006a4.61 4.61 0 0 1-.115.02 52.798 52.798 0 0 1-4.26 3.364l.134 2.188a4.001 4.001 0 0 1-1.785 3.58l-4.904 3.246a4 4 0 0 1-3.993.244l-4.04-2.014a52.159 52.159 0 0 1-4.542 1.204 4.001 4.001 0 0 1-2.539 1.741l-5.756 1.204a4.003 4.003 0 0 1-3.801-1.249l-.136-.152-2.019 1.337a4.002 4.002 0 0 1-3.993.244l-5.263-2.624a3.981 3.981 0 0 1-.915-.628l-2.286 2.723a3.996 3.996 0 0 1-3.758 1.368l-5.792-1.021a3.997 3.997 0 0 1-3.064-2.571l-2.012-5.526a4.014 4.014 0 0 1-.239-1.498l-.327-.057a4.002 4.002 0 0 1-2.706-1.833 4.001 4.001 0 0 1-2.951.636l-5.792-1.021a4.002 4.002 0 0 1-3.064-2.571l-2.012-5.527a4 4 0 0 1 .695-3.939l.433-.516a4 4 0 0 1-2.207-1.281l-3.88-4.42a3.999 3.999 0 0 1-.782-3.923l.882-2.604a3.885 3.885 0 0 1-.325-.329l-3.879-4.42a4.002 4.002 0 0 1-.783-3.923l1.888-5.57a4.002 4.002 0 0 1 2.682-2.56 52.047 52.047 0 0 1 .008-2l-1.779-.887a3.998 3.998 0 0 1-2.208-3.335l-.359-5.87a4.001 4.001 0 0 1 1.784-3.58l3.622-2.397a4.006 4.006 0 0 1 .071-2.258l1.835-5.587a4.001 4.001 0 0 1 2.982-2.667l.75-.157-.2-3.264a4.001 4.001 0 0 1 1.785-3.58l4.904-3.246a4 4 0 0 1 3.567-.427 52.677 52.677 0 0 1 9.626-7.095 3.98 3.98 0 0 1 .578-.917l3.78-4.505z" fill="#776A9C"/><g style="mix-blend-mode:overlay" fill-rule="evenodd" clip-rule="evenodd" fill="#000" fill-opacity=".07"><path d="M618.649 184.539c-.228-.659.12-1.382.792-1.566a18.725 18.725 0 0 1 15.568 2.658c.573.397.662 1.195.228 1.74-.434.546-1.226.631-1.803.241a16.198 16.198 0 0 0-13.164-2.247c-.674.176-1.393-.167-1.621-.826zM645.888 170.643c-.577-.391-.732-1.179-.303-1.729a18.722 18.722 0 0 1 14.057-7.198c.696-.027 1.245.559 1.224 1.256-.02.697-.603 1.24-1.299 1.273a16.201 16.201 0 0 0-11.886 6.088c-.434.545-1.215.7-1.793.31zM684.716 129.676c-.033.696-.626 1.238-1.318 1.158a18.72 18.72 0 0 1-13.46-8.261c-.385-.582-.17-1.355.436-1.7s1.373-.13 1.763.448a16.201 16.201 0 0 0 11.382 6.985c.691.088 1.23.674 1.197 1.37zM642.862 147.03c.11-.688.759-1.161 1.438-1.005a18.721 18.721 0 0 1 12.46 9.705c.318.62.018 1.365-.622 1.641-.64.275-1.378-.024-1.703-.641a16.197 16.197 0 0 0-10.535-8.206c-.678-.163-1.148-.806-1.038-1.494zM678.13 168.968c.691.092 1.181.727 1.043 1.411a18.723 18.723 0 0 1-9.363 12.718c-.612.334-1.365.055-1.657-.578-.293-.632-.014-1.378.594-1.719a16.201 16.201 0 0 0 7.918-10.754c.145-.682.774-1.17 1.465-1.078zM692.297 162.406c-.589.372-1.373.198-1.705-.414a18.724 18.724 0 0 1-.961-15.764c.255-.649 1.012-.917 1.642-.619.63.298.894 1.049.645 1.701a16.2 16.2 0 0 0 .814 13.329c.325.617.154 1.394-.435 1.767zM633.24 140.851c-.666-.205-1.044-.914-.795-1.565a18.726 18.726 0 0 1 11.348-10.984c.659-.228 1.355.173 1.538.845.184.673-.215 1.362-.871 1.597a16.199 16.199 0 0 0-9.596 9.288c-.256.648-.958 1.024-1.624.819zM613.853 118.568c-.052-.695.471-1.304 1.168-1.309a18.72 18.72 0 0 1 14.362 6.568c.453.531.333 1.324-.227 1.74-.559.416-1.346.295-1.804-.23a16.199 16.199 0 0 0-12.145-5.554c-.697-.003-1.303-.519-1.354-1.215zM658.282 173.974c.675.174 1.085.864.866 1.526a18.728 18.728 0 0 1-10.823 11.501c-.648.258-1.361-.109-1.576-.772-.215-.664.152-1.371.796-1.636a16.2 16.2 0 0 0 9.152-9.725c.226-.66.91-1.068 1.585-.894zM668.216 151.019c.174-.675.864-1.085 1.526-.866a18.724 18.724 0 0 1 11.502 10.823c.258.647-.109 1.361-.773 1.576-.663.214-1.37-.152-1.635-.797a16.198 16.198 0 0 0-9.726-9.151c-.659-.226-1.068-.91-.894-1.585zM618.125 143.475c.296-.631 1.05-.907 1.66-.569a18.724 18.724 0 0 1 9.302 12.763c.134.684-.359 1.318-1.051 1.406-.691.088-1.318-.403-1.46-1.085a16.199 16.199 0 0 0-7.865-10.793c-.606-.344-.881-1.091-.586-1.722zM671.793 140.488c.37.59.193 1.374-.422 1.703a18.72 18.72 0 0 1-15.767.898c-.648-.257-.913-1.015-.612-1.644.3-.629 1.053-.89 1.703-.639a16.197 16.197 0 0 0 13.333-.76c.617-.323 1.394-.149 1.765.442zM646.973 120.392c.001-.697.568-1.265 1.263-1.217a18.718 18.718 0 0 1 13.825 7.635c.411.563.232 1.345-.357 1.717-.59.373-1.366.193-1.782-.366a16.204 16.204 0 0 0-11.691-6.455c-.694-.056-1.26-.617-1.258-1.314zM639.202 106.645c.493.492.498 1.295-.026 1.755a18.726 18.726 0 0 1-15.158 4.434c-.689-.105-1.118-.783-.967-1.464.15-.68.824-1.104 1.515-1.007a16.199 16.199 0 0 0 12.817-3.749c.528-.454 1.325-.461 1.819.031zM667.318 103.608c.259.647-.054 1.386-.717 1.602a18.726 18.726 0 0 1-15.677-1.919c-.591-.368-.717-1.161-.31-1.727.408-.565 1.195-.688 1.79-.326a16.196 16.196 0 0 0 13.256 1.622c.665-.208 1.399.101 1.658.748zM606.698 130.079c.682-.146 1.357.288 1.457.978a18.721 18.721 0 0 1-4.54 15.127c-.463.52-1.266.511-1.754.013-.489-.497-.477-1.293-.019-1.819a16.204 16.204 0 0 0 3.839-12.791c-.093-.69.336-1.361 1.017-1.508zM627.334 172.253c-.59-.371-.771-1.153-.361-1.717a18.72 18.72 0 0 1 13.807-7.667c.696-.05 1.264.518 1.267 1.215.002.697-.562 1.259-1.256 1.316a16.196 16.196 0 0 0-11.675 6.483c-.416.559-1.191.741-1.782.37zM607.517 158.398c.407-.566 1.199-.696 1.736-.252a18.724 18.724 0 0 1 6.772 14.268c.005.697-.597 1.228-1.293 1.186-.695-.041-1.221-.64-1.233-1.337a16.203 16.203 0 0 0-5.726-12.064c-.532-.45-.664-1.236-.256-1.801z"/></g></g><g clip-path="url(#clip3)"><path d="M750 0h250v250H750z"/><path d="M788.295 165.449l71-122.976 71.12 40.625c34.159 19.512 45.941 63.081 26.271 97.15-19.542 33.847-62.765 45.536-96.702 26.151l-71.689-40.95z" fill="url(#paint3_linear)"/><path d="M836.009 33.2a3.5 3.5 0 0 1 4.781-1.28l94.396 54.5a3.5 3.5 0 1 1-3.5 6.062l-94.396-54.5a3.5 3.5 0 0 1-1.281-4.781zM778.046 154.883a3.676 3.676 0 0 1 5.023-1.346l82.204 47.46a3.678 3.678 0 1 1-3.678 6.37l-82.203-47.46a3.678 3.678 0 0 1-1.346-5.024zM794.583 127.921a3.679 3.679 0 0 1 5.024-1.347l49.45 28.551a3.677 3.677 0 0 1-3.677 6.37l-49.451-28.551a3.676 3.676 0 0 1-1.346-5.023zM828.092 99.094a3.678 3.678 0 0 1 5.024-1.346l49.451 28.55a3.678 3.678 0 0 1-3.678 6.37l-49.451-28.55a3.679 3.679 0 0 1-1.346-5.024zM837.212 61.901a3.678 3.678 0 0 1 5.024-1.346l49.45 28.55a3.677 3.677 0 1 1-3.677 6.37l-49.451-28.55a3.677 3.677 0 0 1-1.346-5.024zM802.361 63.01a3.678 3.678 0 0 1 5.024-1.347l26.072 15.053a3.678 3.678 0 0 1-3.678 6.37l-26.071-15.053a3.678 3.678 0 0 1-1.347-5.024zM826.174 120.032a3.678 3.678 0 0 1 5.024-1.346l8.751 5.052a3.678 3.678 0 0 1-3.678 6.37l-8.751-5.053a3.676 3.676 0 0 1-1.346-5.023zM788.006 141.27a3.678 3.678 0 0 1 5.024-1.346l17.411 10.052a3.678 3.678 0 0 1-3.677 6.37l-17.412-10.052a3.678 3.678 0 0 1-1.346-5.024zM792.301 100.475a3.678 3.678 0 0 1 5.024-1.346l17.411 10.053a3.676 3.676 0 0 1 1.346 5.023 3.676 3.676 0 0 1-5.023 1.346l-17.411-10.052a3.679 3.679 0 0 1-1.347-5.024zM799.841 89.315a3.678 3.678 0 0 1 5.024-1.346l17.411 10.052a3.677 3.677 0 1 1-3.677 6.37l-17.412-10.052a3.678 3.678 0 0 1-1.346-5.024z" fill="#FFD686"/><path d="M878.393 91.952a4 4 0 0 1 3.825-1.17l5.73 1.323c.178.041.352.094.52.158.932-.161 1.873-.297 2.821-.408l3.653-3.917a4 4 0 0 1 3.825-1.17l5.731 1.323a4 4 0 0 1 2.925 2.728l.532 1.738c2.034.413 4.023.943 5.961 1.582a3.996 3.996 0 0 1 1.748.012l5.731 1.323a4 4 0 0 1 2.925 2.728l.258.844a52.664 52.664 0 0 1 11.789 9.725l1.766.408a3.999 3.999 0 0 1 2.925 2.728l1.709 5.587c.326.558.643 1.122.95 1.693.128.121.249.252.361.392l3.686 4.583a3.998 3.998 0 0 1 .613 3.953l-.494 1.274c.516 1.78.939 3.598 1.266 5.448l.624.353a4.001 4.001 0 0 1 2.031 3.446l.051 5.881a3.99 3.99 0 0 1-.474 1.924l1.78 2.213a4.001 4.001 0 0 1 .613 3.953l-2.126 5.484c-.13.335-.302.647-.51.928a4 4 0 0 1 .541 1.975l.051 5.881a3.998 3.998 0 0 1-1.969 3.481l-5.067 2.986a4.001 4.001 0 0 1-3.467.286 4.004 4.004 0 0 1-.068 2.704l-2.126 5.483a3.999 3.999 0 0 1-3.116 2.508l-5.812.901-.036.005-.028.004-.115.014a52.697 52.697 0 0 1-4.431 3.137l.019 2.191a4 4 0 0 1-1.969 3.482l-5.068 2.985a3.998 3.998 0 0 1-3.999.035l-3.93-2.223a51.944 51.944 0 0 1-4.599.965 3.996 3.996 0 0 1-2.626 1.605l-5.812.901a4 4 0 0 1-3.729-1.445l-.129-.16-2.086 1.23a4.003 4.003 0 0 1-4 .035l-5.119-2.896a4.013 4.013 0 0 1-.881-.676l-2.425 2.601a3.998 3.998 0 0 1-3.825 1.169l-5.73-1.323a3.999 3.999 0 0 1-2.926-2.728l-1.719-5.624a4 4 0 0 1-.161-1.508l-.323-.074a4 4 0 0 1-2.606-1.972 4.004 4.004 0 0 1-2.981.481l-5.73-1.323a4.002 4.002 0 0 1-2.926-2.728l-1.719-5.625a3.998 3.998 0 0 1 .9-3.897l.459-.493a3.995 3.995 0 0 1-2.137-1.394l-3.643-4.617a4 4 0 0 1-.576-3.959l1.017-2.554a4.074 4.074 0 0 1-.307-.346l-3.643-4.617a4 4 0 0 1-.576-3.958l2.177-5.464a4.003 4.003 0 0 1 2.812-2.416 52.772 52.772 0 0 1 .113-1.997l-1.73-.978a4.003 4.003 0 0 1-2.031-3.447l-.051-5.881a3.998 3.998 0 0 1 1.969-3.481l3.742-2.205a4.002 4.002 0 0 1 .189-2.25l2.126-5.484a4 4 0 0 1 3.117-2.507l.757-.117-.029-3.271a4 4 0 0 1 1.97-3.481l5.067-2.985a4 4 0 0 1 3.585-.24 52.673 52.673 0 0 1 9.983-6.581c.165-.318.375-.617.626-.886l4.011-4.301z" fill="#776A9C"/><g style="mix-blend-mode:overlay" fill-rule="evenodd" clip-rule="evenodd" fill="#000" fill-opacity=".07"><path d="M867.196 181.273c-.193-.67.192-1.374.873-1.522a18.72 18.72 0 0 1 15.408 3.469c.552.425.598 1.227.136 1.749-.461.522-1.256.566-1.813.146a16.2 16.2 0 0 0-13.028-2.933c-.683.141-1.382-.24-1.576-.909zM895.126 168.821c-.556-.42-.67-1.215-.213-1.742a18.723 18.723 0 0 1 14.415-6.453c.697.01 1.214.624 1.157 1.319-.057.694-.667 1.206-1.364 1.203a16.201 16.201 0 0 0-12.189 5.457c-.462.522-1.25.636-1.806.216zM936.044 129.943c-.069.693-.689 1.203-1.377 1.087a18.721 18.721 0 0 1-13.009-8.954c-.353-.601-.098-1.362.525-1.675.623-.312 1.377-.058 1.737.539a16.201 16.201 0 0 0 11 7.572c.686.124 1.194.737 1.124 1.431zM893.34 145.082c.146-.681.818-1.12 1.489-.928a18.721 18.721 0 0 1 11.934 10.344c.285.636-.053 1.364-.707 1.605-.654.242-1.375-.095-1.667-.728a16.196 16.196 0 0 0-10.091-8.746c-.668-.199-1.105-.865-.958-1.547zM927.411 168.836c.685.128 1.142.788.968 1.463a18.722 18.722 0 0 1-10.016 12.211c-.629.302-1.366-.016-1.625-.663-.259-.647.058-1.378.683-1.686a16.2 16.2 0 0 0 8.47-10.325c.181-.674.835-1.128 1.52-1zM941.902 163.024c-.608.341-1.381.127-1.681-.503a18.724 18.724 0 0 1-.135-15.792c.289-.635 1.059-.863 1.672-.532.614.331.838 1.095.556 1.732a16.2 16.2 0 0 0 .114 13.354c.293.632.082 1.4-.526 1.741zM884.054 138.408c-.655-.24-.995-.967-.712-1.604a18.723 18.723 0 0 1 11.908-10.375c.669-.194 1.343.243 1.491.924.148.681-.286 1.349-.954 1.549a16.197 16.197 0 0 0-10.068 8.773c-.29.634-1.011.973-1.665.733zM865.86 115.142c-.015-.697.538-1.279 1.234-1.247a18.724 18.724 0 0 1 14 7.311c.424.553.263 1.34-.318 1.726-.58.385-1.36.224-1.79-.325a16.2 16.2 0 0 0-11.837-6.182c-.696-.039-1.274-.587-1.289-1.283zM907.328 172.796c.665.209 1.038.92.785 1.569a18.719 18.719 0 0 1-11.41 10.919c-.66.225-1.354-.18-1.533-.853-.18-.674.223-1.361.88-1.592a16.203 16.203 0 0 0 9.649-9.233c.26-.647.964-1.019 1.629-.81zM918.45 150.393c.209-.665.92-1.039 1.569-.785a18.723 18.723 0 0 1 10.92 11.41c.224.66-.18 1.353-.854 1.533-.673.18-1.36-.223-1.592-.881a16.196 16.196 0 0 0-9.233-9.648c-.646-.26-1.019-.964-.81-1.629zM868.823 140.238c.328-.615 1.096-.851 1.687-.482a18.725 18.725 0 0 1 8.621 13.233c.098.69-.427 1.297-1.123 1.348-.695.052-1.295-.471-1.401-1.159a16.203 16.203 0 0 0-7.289-11.19c-.588-.375-.823-1.136-.495-1.75zM922.573 140.063c.338.609.121 1.382-.51 1.679a18.722 18.722 0 0 1-15.793.072c-.633-.291-.858-1.062-.525-1.674.333-.613 1.098-.834 1.734-.549a16.196 16.196 0 0 0 13.354-.061c.634-.29 1.401-.076 1.74.533zM898.839 118.696c.037-.696.633-1.234 1.325-1.15a18.729 18.729 0 0 1 13.407 8.348c.381.584.161 1.356-.447 1.697-.608.341-1.374.121-1.761-.459a16.198 16.198 0 0 0-11.336-7.058c-.691-.092-1.226-.682-1.188-1.378zM891.798 104.561c.467.517.429 1.319-.118 1.751a18.722 18.722 0 0 1-15.369 3.635c-.683-.141-1.076-.841-.89-1.512.187-.672.882-1.06 1.566-.927a16.2 16.2 0 0 0 12.996-3.073c.552-.426 1.347-.391 1.815.126zM920.034 103c.225.66-.126 1.381-.8 1.562a18.724 18.724 0 0 1-15.554-2.737c-.572-.399-.656-1.197-.219-1.74.436-.544 1.228-.625 1.804-.232a16.199 16.199 0 0 0 13.152 2.313c.676-.173 1.392.174 1.617.834zM858.112 126.262c.689-.11 1.34.359 1.404 1.053a18.722 18.722 0 0 1-5.325 14.868c-.49.496-1.291.444-1.753-.078-.462-.522-.408-1.317.076-1.818a16.197 16.197 0 0 0 4.503-12.572c-.056-.695.407-1.342 1.095-1.453zM876.513 169.458c-.57-.401-.71-1.192-.271-1.734a18.723 18.723 0 0 1 14.19-6.933c.697-.013 1.234.583 1.201 1.279-.034.696-.627 1.228-1.323 1.249a16.201 16.201 0 0 0-11.999 5.862c-.444.537-1.228.678-1.798.277zM857.448 154.585c.436-.544 1.234-.633 1.747-.161a18.724 18.724 0 0 1 6.016 14.603c-.031.696-.661 1.195-1.353 1.117-.693-.078-1.186-.703-1.162-1.4a16.201 16.201 0 0 0-5.087-12.347c-.508-.478-.598-1.269-.161-1.812z"/></g></g><defs><linearGradient id="paint0_linear" x1="138.213" y1="136.594" x2="92.026" y2="109.112" gradientUnits="userSpaceOnUse"><stop stop-color="#FFD481"/><stop offset="1" stop-color="#FFD481" stop-opacity="0"/></linearGradient><linearGradient id="paint1_linear" x1="388.01" y1="137.353" x2="341.823" y2="109.87" gradientUnits="userSpaceOnUse"><stop stop-color="#FFD481"/><stop offset="1" stop-color="#FFD481" stop-opacity="0"/></linearGradient><linearGradient id="paint2_linear" x1="637.997" y1="137.401" x2="591.81" y2="109.918" gradientUnits="userSpaceOnUse"><stop stop-color="#FFD481"/><stop offset="1" stop-color="#FFD481" stop-opacity="0"/></linearGradient><linearGradient id="paint3_linear" x1="888.481" y1="135.592" x2="842.295" y2="108.11" gradientUnits="userSpaceOnUse"><stop stop-color="#FFD481"/><stop offset="1" stop-color="#FFD481" stop-opacity="0"/></linearGradient><clipPath id="clip0"><path d="M0 0h250v250H0z"/></clipPath><clipPath id="clip1"><path transform="translate(250)" d="M0 0h250v250H0z"/></clipPath><clipPath id="clip2"><path transform="translate(500)" d="M0 0h250v250H0z"/></clipPath><clipPath id="clip3"><path transform="translate(750)" d="M0 0h250v250H0z"/></clipPath></defs></svg>